<mxfile host="app.diagrams.net" modified="2023-05-07T14:21:32.565Z" agent="Mozilla/5.0 (Windows NT 10.0; Win64; x64) AppleWebKit/537.36 (KHTML, like Gecko) Chrome/112.0.0.0 Safari/537.36" version="21.2.9" etag="gga8af9Xhlt_QL4Ul1PJ" type="github">
  <diagram name="Page-1" id="1QGrsKE9FiJfXz_xn73r">
    <mxGraphModel>
      <root>
        <mxCell id="0" />
        <mxCell id="1" parent="0" />
      </root>
    </mxGraphModel>
  </diagram>
</mxfile>
